<svg width="540" height="454" fill="none" xmlns="http://www.w3.org/2000/svg"><path d="M101.4 103.3c-31.3 43-46.1 97.8-37.2 154.5l-14 2.2c-2.8.4-4.8 3.1-4.3 6 21.6 119.3 133.4 200.7 253.6 184.5 2.8-.4 4.8-3.1 4.4-5.9l-2.2-14.1C415 412.6 492.3 306.3 474.4 193.1l14-2.2c2.8-.4 4.8-3.1 4.3-6-10.5-57.8-42.1-106.7-85.6-139.9-2.3-1.7-5.6-1.2-7.3 1.1l-8.4 11.5c-43-31.3-97.8-46.1-154.5-37.2l-2.2-14c-.4-2.8-3.1-4.8-6-4.3-57.7 10.4-106.6 42-139.9 85.6-1.7 2.3-1.2 5.6 1.1 7.3l11.5 8.3z" fill="#C7FA73"/><path d="M248.7 262.8c20.9 73.1-22.6 122-22.6 122-5.9-.8-25.6-7-28.5-8.8-2.9-1.7 25.1-54.4 3-110.5" fill="#C7FA73"/><path d="M248.7 262.8l-5.1.3c0 2.8.2 6.4 1 10.8 5.3 33 2.1 62.8-8 90.9l1 3c11.1-20.4 24.7-57.6 11.1-105z" fill="#fff"/><path d="M248.7 262.8c20.9 73.1-22.6 122-22.6 122-5.9-.8-25.6-7-28.5-8.8-2.9-1.7 25.1-54.4 3-110.5" stroke="#000" stroke-width="2" stroke-miterlimit="10" stroke-linecap="round" stroke-linejoin="round"/><path d="M221 180.1l-34 4.2-15.2-18.2 2-10.5-1.2-13.9-.8-8.5-.7-12.4 3.6-5.1 13.7-2.1h13.1l.5 4.6 1 8.8.4 2.9v6l-2.7 7.5-1.5 2.9 1.9 3.8 3.6 4.2 3.4 3.1 6.5 15.4 6.4 7.3z" fill="#C7FA73"/><path d="M206.8 157.8c.6.1 1 .2 1.4.1l-.2-.5-3.4-3.1-3.6-4.2-1.8-3.8-4.9 2.2c4.2 5.6 6.6 8.5 12.5 9.3zm-10.3-44.2c3.5 8.5 3.5 31 0 33.9 1.2-1 3.9-3.5 4.5-4.9 3.2-8.1 3.6-16.6-.4-32l-4.1 3z" fill="#fff"/><path d="M178.9 143.2c5.1 9.2 19.2 6.9 22.2-.7 3.5-8.7 3.7-17.9-1.3-35.6" stroke="#000" stroke-width="2" stroke-miterlimit="10" stroke-linecap="round" stroke-linejoin="round"/><path d="M192.1 122.5c8.1 0 9.9 4.6.8 5.1l-.8-5.1z" fill="#C7FA73"/><path d="M192.1 122.5c8.1 0 9.9 4.6.8 5.1" stroke="#000" stroke-width="2" stroke-miterlimit="10" stroke-linecap="round" stroke-linejoin="round"/><path d="M192.8 127.6c-4.7 2.3-9.3 8.2-9.6 12 4.9-1.3 8.1-4 10-7.2 2.3 3.2 7.5 5.7 10.6 6.1-.8-5-7.1-9.4-11-10.9z" fill="#000" stroke="#000" stroke-width="2" stroke-miterlimit="10" stroke-linecap="round" stroke-linejoin="round"/><path d="M217.7 94.7c-3.2-1.8-13.8 4-17.4 8-1.7 2 2.4 2.9.8 3.1-1.6-1.4-6.3-11.2-8.6-16.9-1.7-4.4-5.9-3-10.2.7-.8-.5-1.7-1.2-2.7-1.9-4.3-3.4-12.9 8.3-12.7 22.1l.1.1c-1.8-1.1-3.4-2.1-5-2.9-5.2-2.9-17.1-3.1-14.8 7.7 1.4 6.2 8.6 13.5 22.3 13.3 1.1 0-2.7-12.1-1.6-12.2l17.5 2.2 1.2.1.4-.3c6.4.7 14.2 0 23-4.7 11.6-6.2 10.8-16.7 7.7-18.4z" fill="#fff"/><path d="M188.1 91.7c-3-.2-5.4-1.6-8.5-4-4.3-3.4-12.9 8.3-12.7 22.1 3.5.6 21.9 1.6 34.2-4" stroke="#000" stroke-width="2" stroke-miterlimit="10" stroke-linecap="round" stroke-linejoin="round"/><path d="M182.2 89.6c4.3-3.7 8.5-5.1 10.2-.7 2.3 5.7 7 15.5 8.6 16.9" stroke="#000" stroke-width="2" stroke-miterlimit="10" stroke-linecap="round" stroke-linejoin="round"/><path d="M199.5 103.5c26.3-23.8 23.8 3.4 10.6 9.5-24.5 11.3-38-.4-48.1-6-5.2-2.9-17.1-3.1-14.8 7.7 1.4 6.3 8.8 13.7 22.8 13.3m12.2-11.2c-8.3-1.7-16.3-1.3-20.8-.2m7.4-.9c.6 9.3 6.7 32.9 3.8 44.2" stroke="#000" stroke-width="2" stroke-miterlimit="10" stroke-linecap="round" stroke-linejoin="round"/><path d="M172.6 122.5c-4.1-2.1-6.5.9-4.9 3.9 1.6 3 2.6 3.8 4.2 5.4" fill="#C7FA73"/><path d="M172.6 122.5c-4.1-2.1-6.5.9-4.9 3.9 1.6 3 2.6 3.8 4.2 5.4" stroke="#000" stroke-width="2" stroke-miterlimit="10" stroke-linecap="round" stroke-linejoin="round"/><path d="M176.9 131.7c1 .1 1.3.1 1.9-.7-1-2.9-2.9-10.2-2.7-14.2-2.7-.5-10.1-.9-10.1-.9l2.2 5.9h4.3c.1-.1 3.7 9.5 4.4 9.9z" fill="#000" stroke="#000" stroke-width="2" stroke-miterlimit="10" stroke-linecap="round" stroke-linejoin="round"/><path d="M213.3 52.1c-8.1-6-10.9-50.3-54.6-50.6-48.6-.4-26.6 42.8 15.3 39.5 64-5.1 145.8-43.1 198.7 11.9 40.8 42.5 58 136.3 11.3 149.1-66.3 18.2-72.9-155.8-130.9-12.8-39.6 97.7-83.5-93.1-124 38.7-11.8 38.4-20.2 85.4-51.4 49.6-21-24.1-37.2 7-72.1 82.8" stroke="#000" stroke-width="2" stroke-miterlimit="10" stroke-linecap="round" stroke-linejoin="round"/><path d="M197.5 376l-3.2 2.1-3 12.5-1.6 10.3 6.7 2.7 2.6.6 4.4-2 4.9-.6 7.2 7.8 6.7 3.2 12.9 3 5.9.8 3.9.2 3-.9 2.8-2.6-.2-3.3-3.8-4.7-9.5-8.8-3-6.1-2.2-13.8-16.9-4.8-13.4.4-4.2 4zm-21.7-154.9L165 206.3l-7.7-14.3 11.5-21 11 23.8v7.6l-4 18.7z" fill="#fff"/><path d="M198.9 145.7c1.4 3 3.8 8.4 9.5 9.9" stroke="#000" stroke-width="2" stroke-miterlimit="10" stroke-linecap="round" stroke-linejoin="round"/><path d="M173.8 160.8c9.4 2.7 14.7 1.9 19 .8 3.4 4.5 9.6 14.5 9.6 14.5s-.6-15.6-.2-16.6c3.2-2 4.3-3.6 8.3-7.4 5.7 4.9 36.8 69.6 36.8 69.6L205.7 250l-31.9-89.2z" fill="#fff" stroke="#000" stroke-width="2" stroke-miterlimit="10" stroke-linecap="round" stroke-linejoin="round"/><path d="M234.2 389c.7-3.5 16.9-41.9 14-42.8-3.2-1-11.5 15.1-17.1 13.5-5.6-1.6-19.5-21.4-25.3-21.4-3.7 0-9.8 31.6-11.2 38.9" fill="#fff"/><path d="M234.2 389c.7-3.5 16.9-41.9 14-42.8-3.2-1-11.5 15.1-17.1 13.5-5.6-1.6-19.5-21.4-25.3-21.4-3.7 0-9.8 31.6-11.2 38.9" stroke="#000" stroke-width="2" stroke-miterlimit="10" stroke-linecap="round" stroke-linejoin="round"/><path d="M194.7 377.3c6 7.5 21.2 22.2 21.8 5.9 4.7 3.7 10.6 0 12.4-2.9.2 5.1 2.4 6.8 5.4 8.8" stroke="#000" stroke-width="2" stroke-miterlimit="10" stroke-linecap="round" stroke-linejoin="round"/><path d="M234.2 389c.8 5.4 5.7 11 13.1 16.6 7.4 5.6.7 11.1-1.8 11.1-4.7-.1-27.4-2-33.2-10.3-6.5-9.2-15.8-13.4-21-15 0-4.9 1.5-10.3 3.4-14.1" stroke="#000" stroke-width="2" stroke-miterlimit="10" stroke-linecap="round" stroke-linejoin="round"/><path d="M191.2 391.3c-.8 4.9-1.4 8-1.6 9.1 1.9 1.6 6.1 3.4 10 3.8.6-2.2 1.1-4.4 3.5-6.9" stroke="#000" stroke-width="2" stroke-miterlimit="10" stroke-linecap="round" stroke-linejoin="round"/><path d="M213.5 149.7c7.4-9.1 23.4-34.1 14.1-66.1l16.3-6.1c19.2 34.5 5 72.1-11.9 97.7" fill="#fff"/><path d="M213.5 149.7c7.4-9.1 23.4-34.1 14.1-66.1l16.3-6.1c19.2 34.5 5 72.1-11.9 97.7" stroke="#000" stroke-width="2" stroke-miterlimit="10" stroke-linecap="round" stroke-linejoin="round"/><path d="M167.1 162.1c-11.2 2.6-80.7 25.5-35.3 97l16.4-13c-4.1-5.3-14.4-40.1 17.7-53.7" fill="#fff"/><path d="M167.1 162.1c-11.2 2.6-80.7 25.5-35.3 97l16.4-13c-4.1-5.3-14.4-40.1 17.7-53.7" stroke="#000" stroke-width="2" stroke-miterlimit="10" stroke-linecap="round" stroke-linejoin="round"/><path d="M177.9 263.7c-5.8-31.4-13.4-58.1-18.2-67.6 1.3 1.3 8.6 16.6 13.6 14.1 5.3-2.6-4-31.3-16-45.7l13.7-5.7c3.3 1.5 21.1 18.7 33 32.1 1.4 5.7 6.3 40.5 8 49.9-10.4 8-27.1 17-34.1 22.9z" fill="#000" stroke="#000" stroke-width="2" stroke-miterlimit="10" stroke-linecap="round" stroke-linejoin="round"/><path d="M138.8 273.9c-37.1 30.2-49.2 91.5-5.5 90 29.3-1 25.4-28.3 14.7-49.6-5.8-11.5-7.3-23.8-3.9-33.4m12-17.2c3.5-3.4 6.5-8.3 7.7-11.3 1.3-3 5.6 1.5 5.8 6.6.2 5.1-1.2 8.8 1.5 12.3s-11.2 0-13.8 0" fill="#000"/><path d="M156.1 263.7c3.5-3.4 6.5-8.3 7.7-11.3 1.3-3 5.6 1.5 5.8 6.6.2 5.1-1.2 8.8 1.5 12.3s-11.2 0-13.8 0" stroke="#000" stroke-width="2" stroke-miterlimit="10" stroke-linecap="round" stroke-linejoin="round"/><path d="M134.4 260.5l.4 5.5 4.8 9.8 3.4 4.4 3.3 2.9 6.9 1.3 7.4-5.8 1.2-3.8-8.6-10-8.8-8-10 3.7z" fill="#C7FA73"/><path d="M161.6 283.1c2.2-.3 6.3-4 3.1-11.8-1.9-4.7-9.4-16.2-10.4-17.4-1.4-2.5-3.4-7.2-5.7-11.4-2.5.3-14.5 5.8-21.9 13.5 3.4 5.2 5.7 7.1 7.7 9.2" fill="#C7FA73"/><path d="M161.6 283.1c2.2-.3 6.3-4 3.1-11.8-1.9-4.7-9.4-16.2-10.4-17.4-1.4-2.5-3.4-7.2-5.7-11.4-2.5.3-14.5 5.8-21.9 13.5 3.4 5.2 5.7 7.1 7.7 9.2" stroke="#000" stroke-width="2" stroke-miterlimit="10" stroke-linecap="round" stroke-linejoin="round"/><path d="M159.2 271.4c3 3 5.3 19.2-3.6 13l3.6-13z" fill="#C7FA73"/><path d="M159.2 271.4c3 3 5.3 19.2-3.6 13" stroke="#000" stroke-width="2" stroke-miterlimit="10" stroke-linecap="round" stroke-linejoin="round"/><path d="M154.6 273.9c2.2 3.7 2.8 16.4-4.2 11.4l4.2-11.4z" fill="#C7FA73"/><path d="M154.6 273.9c2.2 3.7 2.8 16.4-4.2 11.4" stroke="#000" stroke-width="2" stroke-miterlimit="10" stroke-linecap="round" stroke-linejoin="round"/><path d="M148.8 276.4c2.9 5.6 1.7 9.3.8 10-.9.8-4.1.2-6.7-1" fill="#C7FA73"/><path d="M148.8 276.4c2.9 5.6 1.7 9.3.8 10-.9.8-4.1.2-6.7-1" stroke="#000" stroke-width="2" stroke-miterlimit="10" stroke-linecap="round" stroke-linejoin="round"/><path d="M134.4 265.3c1.8 3.7 5.8 12.8 10.4 16.3l-10.4-16.3z" fill="#C7FA73"/><path d="M134.4 265.3c1.8 3.7 5.8 12.8 10.4 16.3" stroke="#000" stroke-width="2" stroke-miterlimit="10" stroke-linecap="round" stroke-linejoin="round"/><path d="M142.8 286.4c-5.2 23.3 3.1 28.6 6.7 42.6 4.4 17.7-2.7 28.1-11.9 34.5 24.6-3.4 20.6-29 10.4-49.2-4.7-9.4-6.6-19.3-5.2-27.9z" fill="#C7FA73"/><path d="M138.8 273.9c-37.1 30.2-49.2 91.5-5.5 90 29.3-1 25.4-28.3 14.7-49.6-5.8-11.5-7.3-23.8-3.9-33.4" stroke="#000" stroke-width="2" stroke-miterlimit="10" stroke-linecap="round" stroke-linejoin="round"/><path d="M232.3 60.9l-4.4 5.5 1.3 7.3 10.8 2.8 3.9-.2-.9-5.8-7.5-8.3-3.2-1.3z" fill="#C7FA73"/><path d="M243.9 72c2.5 2.4 5 8.1 5.9 9.3-3.3 2.4-19.7 8-23.4 6.7-1-4.5-.5-6-1.8-9.8-7-3.8-6-10-16.1-16.4-5.2-3.3-2-8.5 4.3-5.4" fill="#C7FA73"/><path d="M243.9 72c2.5 2.4 5 8.1 5.9 9.3-3.3 2.4-19.7 8-23.4 6.7-1-4.5-.5-6-1.8-9.8-7-3.8-6-10-16.1-16.4-5.2-3.3-2-8.5 4.3-5.4" stroke="#000" stroke-width="2" stroke-miterlimit="10" stroke-linecap="round" stroke-linejoin="round"/><path d="M227.6 52c-7.8-13.8-16.5.2-14.6 4.5 1.9 4.3 6.5-1.3 7.8-2.6" fill="#C7FA73"/><path d="M227.6 52c-7.8-13.8-16.5.2-14.6 4.5 1.9 4.3 6.5-1.3 7.8-2.6" stroke="#000" stroke-width="2" stroke-miterlimit="10" stroke-linecap="round" stroke-linejoin="round"/><path d="M231.2 54.6c-7.5-7.9-15.5 1.3-13.6 5.6 1.9 4.3 6.5-1.3 7.8-2.6" fill="#C7FA73"/><path d="M231.2 54.6c-7.5-7.9-15.5 1.3-13.6 5.6 1.9 4.3 6.5-1.3 7.8-2.6" stroke="#000" stroke-width="2" stroke-miterlimit="10" stroke-linecap="round" stroke-linejoin="round"/><path d="M234.3 56.6c-7.7-7.3-15.6 2.5-13.1 8.3 1.9 4.3 6.5-1.3 7.8-2.6" fill="#C7FA73"/><path d="M234.3 56.6c-7.7-7.3-15.6 2.5-13.1 8.3 1.9 4.3 6.5-1.3 7.8-2.6" stroke="#000" stroke-width="2" stroke-miterlimit="10" stroke-linecap="round" stroke-linejoin="round"/><path d="M232.2 64.3c-1.3 1.4-5.9 6.9-7.8 2.6-1.9-4.3 5.4-14.9 13.1-8.3 3.1 2.7 5.9 10.3 6.5 13.4" fill="#C7FA73"/><path d="M232.2 64.3c-1.3 1.4-5.9 6.9-7.8 2.6-1.9-4.3 5.4-14.9 13.1-8.3 3.1 2.7 5.9 10.3 6.5 13.4m7.5 1.3c-7.5-.7-16.3-2.8-20.5-7.7m-31.3 338.6c1.9-1.3 5.5-2.9 7.9-3.3" stroke="#000" stroke-width="2" stroke-miterlimit="10" stroke-linecap="round" stroke-linejoin="round"/><path d="M499.2 229l-30-5.7-3.3 17.6c-18.6 16.4-34.7 47.6-41.9 85.2-7.2 37.6-3.6 72.6 7.6 94.6l-3.3 17.6 30 5.7c30.3 5.8 64-37.7 75.3-97.1 11.3-59.3-4.1-112.2-34.4-117.9z" fill="#000" stroke="#000" stroke-width="2" stroke-miterlimit="10" stroke-linecap="round" stroke-linejoin="round"/><path d="M503.537 341.277c11.315-59.404-4.053-112.236-34.325-118.002-30.272-5.765-63.985 37.717-75.3 97.122-11.315 59.405 4.053 112.236 34.325 118.002 30.272 5.766 63.985-37.717 75.3-97.122z" fill="#C7FA73" stroke="#000" stroke-width="2" stroke-miterlimit="10" stroke-linecap="round" stroke-linejoin="round"/><path d="M470.4 308l-3.1-.6c-.3-5.4 1-11.1-2.6-13.8l-5.3 27.8c10 6.2 19.7 14.8 16 33.8-3.2 16.7-13.9 25.9-27.4 26l-3.7 16.1-11-2.1-2.4-1 6.1-14.9c-13.3-4.8-19.1-17.8-18.2-32.1l10.6-3.7 3.1.6c-.4 8.7 1.7 15.2 7.7 18.5l5.6-29.6c-9.6-5.8-19-13.4-15.3-33 3.3-17.1 14.2-25.4 26.4-25.3l2.7-14.1h8.2l2.8 2.1-2.7 14.4c9.9 4.3 15.6 14 15.1 28l-12.6 2.9zm-21.2 7.1l4.7-24.5c-5.9.4-9.2 4.3-10.4 10.5-1.3 6.7 1.4 10.8 5.7 14zm6.8 24.2l-4.8 25.5c5.5-.5 9.8-3.8 11.2-10.9 1.3-7.2-1.8-11.2-6.4-14.6z" fill="#000" stroke="#000" stroke-width="2" stroke-miterlimit="10" stroke-linecap="round" stroke-linejoin="round"/><path d="M467.3 307.4c0-6.2-1.7-11.4-5.7-14.4l-5.3 27.8c10 6.2 19.7 14.8 16 33.8-3.2 16.7-13.9 25.9-27.4 26l-3 15.6-11-2.1 2.9-15.5c-13.3-4.8-19.1-17.8-18.2-32.1l13.7-3.1c-.4 8.7 1.7 15.2 7.7 18.5l5.6-29.6c-9.6-5.8-19-13.4-15.3-33 3.3-17.1 14.2-25.4 26.4-25.3l2.7-14.1 11.3.6-3.1 15.9c9.9 4.3 15.6 14 15.1 28l-12.4 3zm-21.2 7.1l4.7-24.5c-5.9.4-9.2 4.3-10.4 10.5-1.3 6.7 1.4 10.8 5.7 14zm6.8 24.2l-4.8 25.5c5.5-.5 9.8-3.8 11.2-10.9 1.4-7.1-1.8-11.2-6.4-14.6z" fill="#C7FA73" stroke="#000" stroke-width="2" stroke-miterlimit="10" stroke-linecap="round" stroke-linejoin="round"/><path d="M496.661 339.968c10.561-55.445-2.34-104.479-28.815-109.522-26.474-5.043-56.497 35.816-67.058 91.261-10.56 55.444 2.341 104.479 28.815 109.521 26.475 5.043 56.497-35.816 67.058-91.26z" stroke="#000" stroke-width="2" stroke-miterlimit="10" stroke-linecap="round" stroke-linejoin="round"/><path d="M404.4 322.3c10.3-54.1 39.2-94.4 65.2-91.5-.6-.2-1.2-.3-1.8-.4-26.5-5-56.5 35.8-67.1 91.2-10.6 55.4 2.4 104.4 28.9 109.5l1.8.3c-25.2-6.9-37.3-54.9-27-109.1z" fill="#000"/><path d="M499.9 357l30 5.7m-26.4-21.5l30.1 5.7m-38.5 25.5l30 5.8m-35.7 8.4l30 5.7m-44 18.6l30.1 5.7m-38.4 4.5l30.1 5.7m-14.4-27.4l30.1 5.7m-55.5 24.8l30.1 5.7m-41 .6l30.1 5.7m29.3-116.7l30.1 5.7m-28.9-21.8l30.1 5.7M507 293.9l30 5.7m-34-33.5l30.1 5.7M499 253.6l30.1 5.7m-23.5 20.2l30.1 5.8m-42.5-43.5l30.1 5.8M485.4 232l30.1 5.7" stroke="#C7FA73" stroke-width="2" stroke-miterlimit="10" stroke-linecap="round" stroke-linejoin="round"/><path d="M503.537 341.277c11.315-59.404-4.053-112.236-34.325-118.002-30.272-5.765-63.985 37.717-75.3 97.122-11.315 59.405 4.053 112.236 34.325 118.002 30.272 5.766 63.985-37.717 75.3-97.122z" stroke="#000" stroke-width="2" stroke-miterlimit="10" stroke-linecap="round" stroke-linejoin="round"/><path d="M458.3 444c30.3 5.8 64-37.7 75.3-97.1 11.3-59.4-4.1-112.2-34.3-118" stroke="#000" stroke-width="2" stroke-miterlimit="10" stroke-linecap="round" stroke-linejoin="round"/><path d="M136.4 328.3c-11.6-4.7-16.7 4.3-6 8.1 11.5 4 9.1 16.6-6.9 11.3m7.8-23.9c-.4 4.2-1.2 22.4-1 27.6" stroke="#C7FA73" stroke-width="2" stroke-miterlimit="10" stroke-linecap="round" stroke-linejoin="round"/><path d="M5.7 364.8a4.7 4.7 0 100-9.4 4.7 4.7 0 000 9.4zm48-86.7a4.7 4.7 0 100-9.4 4.7 4.7 0 000 9.4zm48.1 15.4a4.7 4.7 0 100-9.4 4.7 4.7 0 000 9.4zm191.6-156.2a4.7 4.7 0 100-9.4 4.7 4.7 0 000 9.4zm49.3 54a4.7 4.7 0 100-9.4 4.7 4.7 0 000 9.4z" fill="#fff" stroke="#000" stroke-width="2" stroke-miterlimit="10" stroke-linecap="round" stroke-linejoin="round"/><path d="M233.1 229.5l21.6-7.8c-3.2-16.4-32.9-65.5-42.3-72.9l-7.3 3.2c.2 2.8 7.3 17.4 5.6 37 3.3 6 22 39.4 22.4 40.5z" fill="#000"/><path d="M254.7 221.7l-1-3.7c-6.1-19.1-32.6-62.2-41.3-69.2 13.7 15.6 27.9 53.9 36.8 74.9l5.5-2z" fill="#C7FA73"/><path d="M233.1 229.5l21.6-7.8c-3.2-16.4-32.9-65.5-42.3-72.9l-7.3 3.2c.2 2.8 7.3 17.4 5.6 37 3.3 6 22 39.4 22.4 40.5z" stroke="#000" stroke-width="2" stroke-miterlimit="10" stroke-linecap="round" stroke-linejoin="round"/><path d="M276.1 279.5l-4.9-11-2.4-9.7 11.2-5.1 15.7 16.8-10.5 11.7-9.1-2.7z" fill="#C7FA73"/><path d="M270.2 265.2c-61.9 25.9-82.5 14.7-89.8-3.2 7.8-8.1 78.8-63.5 103.8-50.3 24.9 13.2 35.9 68.8 41.8 81.3" fill="#C7FA73"/><path d="M266.8 252.5c3.4 14.2 10.3 36.2 17.4 51.4l-17.4-51.4z" fill="#C7FA73"/><path d="M266.8 252.5c3.4 14.2 10.3 36.2 17.4 51.4" stroke="#000" stroke-width="2" stroke-miterlimit="10" stroke-linecap="round" stroke-linejoin="round"/><path d="M284.2 211.6c-12.1-6.4-35.3 3.5-56.7 16.2 16.5-6.9 32-12.1 48-10 15.9 2.1 20.1 22.7 35.5 56.7l2 7 6.9-6.5c-6.8-21.6-17.5-53.8-35.7-63.4z" fill="#fff"/><path d="M270.2 265.2c-61.9 25.9-82.5 14.7-89.8-3.2 7.8-8.1 78.8-63.5 103.8-50.3 24.9 13.2 35.9 68.8 41.8 81.3" stroke="#000" stroke-width="2" stroke-miterlimit="10" stroke-linecap="round" stroke-linejoin="round"/><path d="M308.5 355.6s3.8.8 8.4-1.3c4.6-2.1 11.7-5.6 13.8-6.6 2.1-1 3.1-1.1 2.6-2.8-.5-1.7-1.7-3.6-.5-4 1.2-.4 11.8-.9 15.2-3.5 3.5-2.6 9.1-7.8 12.6-14.2 3.5-6.4 7.2-15.6 7.3-18.1.1-2.5.4-3.6-2.8-3.6-3.2.1-6.7 3.6-10.5 7.1-3.8 3.5-6.1 7.8-12.9 13.2-6.8 5.3-10.3 8.3-14.1 9.8-3.9 1.5-8 3.4-12.2 5.5-4.2 2.1-9.7 5.9-10.7 7.7-1.1 1.7-1.1 3.4 0 5.4.9 2 3.8 5.4 3.8 5.4z" fill="#C7FA73"/><path d="M291.9 315.3l1 10.5 3.9 10.5 3.7 7.5 3.8 7 1.8 2.2 3.8-4.4 7.4-4.8 4.3-1.8 1.3-.6v-3l-1.5-4.3 7.4-2.9 9.4-6.2 9.5-9.7 9.1-8.6 5.1-4.3 3.2-.8 1.4.8-.9-3.4-2.4-.8-5.5.7-14.1 5.8-9.4 2-6.7-2.1-4.3 2.7" fill="#fff"/><path d="M335 305.2c-3.7-7.4-16.9-50.4-20.6-49.5-3.7.9 0 17.6-3.5 18.9-3.6 1.3-33.1-10.8-38.3-5-4.5 4.9 14.1 42.1 20.2 55.4" fill="#fff"/><path d="M335 305.2c-3.7-7.4-16.9-50.4-20.6-49.5-3.7.9 0 17.6-3.5 18.9-3.6 1.3-33.1-10.8-38.3-5-4.5 4.9 14.1 42.1 20.2 55.4" stroke="#000" stroke-width="2" stroke-miterlimit="10" stroke-linecap="round" stroke-linejoin="round"/><path d="M292.9 325c16.9 3.7 26.5-5.3 16.9-17.6 5.8 0 8.2-6.9 8.8-13.9 3.9 4.2 7.6 9 14.5 7m33.6 1.1c-1.1-11.6-26.4 9.8-36.5 4.1M292.9 325c1.6 6.7 5.4 16.6 10.9 23.6" stroke="#000" stroke-width="2" stroke-miterlimit="10" stroke-linecap="round" stroke-linejoin="round"/><path d="M332.1 341.2c2.5-1.2 4.5-.8 13-2.6 12-2.5 28.1-36.1 21.1-36.9-10.3-1.2-19.1 20.7-37.9 29.9-5.4 2.6-25.8 10.3-24.5 17.1" stroke="#000" stroke-width="2" stroke-miterlimit="10" stroke-linecap="round" stroke-linejoin="round"/><path d="M323.7 341.2c2.8 1.6 8.1 3.5 10 5-4.8 1.9-16.7 9.3-23.7 9.3s-2.9-8.4 13.7-14.3zm-19.9 7.4c.9 2 1.5 3.3 3.1 5.6" stroke="#000" stroke-width="2" stroke-miterlimit="10" stroke-linecap="round" stroke-linejoin="round"/><path d="M323.7 341.2c-.4-1.5-2-4.7-2.3-6.5 1.3.9 9.3 6 10.7 6.5.7 1.7 1 3.4 1.6 5" stroke="#000" stroke-width="2" stroke-miterlimit="10" stroke-linecap="round" stroke-linejoin="round"/><path d="M279 389.1c0 23.5 16.1 42.6 35.8 42.6h8.7v-1.3c5.2-1.5 10.1-4.4 14.3-8.5 8.2-8.1 12.9-20.1 12.9-32.8 0-20.1-11.7-36.9-27.4-41.4l.3-1.2h-8.7c-19.9 0-35.9 19.1-35.9 42.6zm23.9 0c0-11 6.2-18.7 11.9-18.7s11.9 7.7 11.9 18.7c0 6.3-2.2 12.2-5.8 15.8-1.3 1.3-3.5 2.9-6.1 2.9-5.6 0-11.9-7.7-11.9-18.7z" fill="#C7FA73" stroke="#000" stroke-width="2" stroke-miterlimit="10" stroke-linecap="round" stroke-linejoin="round"/><path d="M287.6 389.1h23.9c0-11 6.2-18.7 11.9-18.7v-23.9c-19.7 0-35.8 19.1-35.8 42.6z" fill="#C7FA73" stroke="#000" stroke-width="2" stroke-miterlimit="10" stroke-linecap="round" stroke-linejoin="round"/><path d="M346.3 422c8.2-8.1 12.9-20.1 12.9-32.8 0-23.5-16.1-42.6-35.8-42.6v23.9c5.6 0 11.9 7.7 11.9 18.7 0 6.3-2.2 12.2-5.8 15.8l16.8 17z" fill="#000" stroke="#000" stroke-width="2" stroke-miterlimit="10" stroke-linecap="round" stroke-linejoin="round"/><path d="M323.4 431.7c8.4 0 16.5-3.5 22.9-9.8l-16.8-17c-1.3 1.3-3.5 2.9-6.1 2.9-5.6 0-11.9-7.7-11.9-18.7h-23.9c0 23.5 16.1 42.6 35.8 42.6z" fill="#fff" stroke="#000" stroke-width="2" stroke-miterlimit="10" stroke-linecap="round" stroke-linejoin="round"/><path d="M190.1 253.7c.5.5 1 .9 1.5 1.3" stroke="#000" stroke-width="2" stroke-miterlimit="10"/><path d="M194.1 256.8c18.2 10.8 50.8-7.8 64.9-14.3 16.4-7.6 17.4 8.5 22.1 22.1" stroke="#000" stroke-width="2" stroke-miterlimit="10" stroke-dasharray="4.12 4.12"/><path d="M281.5 266.1c.2.6.5 1.3.7 1.9" stroke="#000" stroke-width="2" stroke-miterlimit="10"/><path d="M219.2 280c2.4 20.2.4 48.6-5.7 64" stroke="#000" stroke-width="2" stroke-miterlimit="10" stroke-dasharray="4 4"/><path d="M193.6 139.6c-5 .7-.4 8.6 1.5 11.6 2.4-4.6 3.6-12.3-1.5-11.6z" fill="#000" stroke="#000" stroke-width="2" stroke-miterlimit="10" stroke-linecap="round" stroke-linejoin="round"/></svg>